<svg width="25" height="29" viewBox="0 0 25 29" fill="none" xmlns="http://www.w3.org/2000/svg">
<path fill-rule="evenodd" clip-rule="evenodd" d="M14.6951 10.344C15.5834 9.9011 16.7137 9.24909 17.8453 8.35578C18.0839 8.85127 18.11 9.28365 17.9871 9.63279C17.9 9.87884 17.7358 10.0929 17.52 10.2631C17.2862 10.4471 16.9943 10.5811 16.6716 10.6535C16.0593 10.7914 15.3443 10.7109 14.6951 10.344ZM14.8491 14.8823L16.025 15.5615C13.6241 16.9072 12.9714 19.4058 12.1961 21.8395C11.4209 19.4058 10.7681 16.9072 8.3673 15.5615L9.54315 14.8823C9.6569 14.8393 9.75413 14.7615 9.8209 14.6598C9.88766 14.5582 9.92055 14.438 9.91485 14.3166C9.80711 12.0374 10.4225 11.0294 11.2526 10.3966C11.5504 10.1699 11.8754 10.0561 12.1961 10.0561C12.5168 10.0561 12.8418 10.1699 13.1396 10.3966C13.9698 11.0294 14.5852 12.0374 14.4774 14.3166C14.4717 14.438 14.5046 14.5582 14.5714 14.6598C14.6382 14.7615 14.7354 14.8393 14.8491 14.8823ZM12.1961 0C13.5553 0.0364915 14.9179 0.300353 16.1004 0.813654C16.9193 1.16957 17.6834 1.6397 18.3753 2.20188C18.6877 2.45567 18.945 2.70086 19.2284 2.98311C19.9928 3.00953 21.1099 2.16035 21.6285 1.36577C20.736 4.29187 16.6631 7.74733 13.8433 9.06954C13.8422 9.06906 13.8414 9.06838 13.8405 9.0678C13.3345 8.6814 12.7653 8.48819 12.1961 8.48819C11.6268 8.48819 11.0578 8.6814 10.5518 9.0678C10.5509 9.06828 10.5501 9.06915 10.5489 9.06954C7.72913 7.74733 3.65631 4.29187 2.76377 1.36577C3.2823 2.16035 4.3994 3.00953 5.16379 2.98311C5.4473 2.70095 5.70458 2.45567 6.01693 2.20188C6.70882 1.6397 7.47292 1.16957 8.2918 0.813654C9.47443 0.300353 10.837 0.0364915 12.1961 0ZM9.69706 10.344C8.80887 9.9011 7.67851 9.24909 6.54698 8.35578C6.30838 8.85127 6.28225 9.28365 6.40508 9.63279C6.49229 9.87884 6.65645 10.0929 6.87221 10.2631C7.10606 10.4471 7.398 10.5811 7.72071 10.6535C8.33303 10.7914 9.04786 10.7109 9.69706 10.344Z" fill="white"/>
<path fill-rule="evenodd" clip-rule="evenodd" d="M19.0847 7.26113C19.7076 6.63245 20.2566 5.9366 20.6979 5.31566L20.9221 5.73759C21.6438 7.18147 22.0188 8.61954 22.0188 10.2379L22.0173 12.8061L22.0308 14.1374C22.0831 17.4058 22.7902 20.7126 24.3922 23.7387L21.0405 21.036L18.6689 24.8845L16.1774 22.5391L12.1961 29L8.21475 22.5392L5.72336 24.8846L3.3518 21.0361L0 23.7388C1.60195 20.7127 2.30913 17.4059 2.36149 14.1375L2.37505 12.8062L2.3735 10.238C2.3735 8.61954 2.74838 7.18147 3.47027 5.73768L3.69435 5.31576C4.13574 5.93669 4.68456 6.63245 5.30763 7.26123L5.11307 7.66534C4.73509 8.45025 4.60993 9.32788 4.90438 10.1625C5.09419 10.7001 5.44062 11.1612 5.88723 11.5131C6.32087 11.8549 6.83407 12.0853 7.37138 12.2063C7.72139 12.2851 8.07798 12.3175 8.43225 12.3064C8.34958 12.775 8.31348 13.261 8.31116 13.7562L5.14946 15.5824L7.58926 16.95C7.78427 17.0593 7.96991 17.1846 8.14428 17.3245C10.1558 19.1305 11.3651 24.4732 12.1962 27.0829C13.0274 24.4732 14.2366 19.1305 16.2482 17.3245C16.4226 17.1845 16.6082 17.0593 16.8032 16.95L19.243 15.5824L16.0812 13.7562C16.0789 13.261 16.0428 12.775 15.9601 12.3064C16.3144 12.3175 16.671 12.2851 17.021 12.2063C17.5583 12.0853 18.0716 11.8549 18.5052 11.5131C18.9517 11.1612 19.2982 10.7001 19.4879 10.1625C19.7825 9.32788 19.6572 8.45035 19.2793 7.66534L19.0848 7.26123L19.0847 7.26113Z" fill="white"/>
</svg>
