<svg width="26" height="30" viewBox="0 0 26 30" fill="none" xmlns="http://www.w3.org/2000/svg">
<path fill-rule="evenodd" clip-rule="evenodd" d="M9.37884 2.10759C7.65125 3.00753 6.23784 3.76905 6.23815 3.80003C6.23891 3.87997 10.3844 5.97941 10.5316 5.97429C10.5985 5.97205 11.084 5.74855 11.6105 5.47768L12.5678 4.98528L13.6133 5.5227L14.6588 6.06022L16.371 5.29087C18.9509 4.13157 19.2188 4.00453 19.1768 3.96185C19.1211 3.90522 18.1957 3.40811 15.6852 2.08638C14.4719 1.44758 13.2942 0.821254 13.0682 0.694517C12.8421 0.56778 12.6263 0.465828 12.5886 0.467802C12.5509 0.469775 11.1065 1.20769 9.37884 2.10759ZM1.80165 6.03132L0.00324452 6.96026V11.0372C0.00324452 13.2795 0.0268593 15.1141 0.0558258 15.1141C0.0846921 15.1141 0.96951 14.7305 2.02204 14.2617L3.93574 13.4094V9.11204L4.8709 9.62153C5.59152 10.0138 6.31257 10.4052 7.03406 10.7959L8.26202 11.4607L8.80844 11.2137C9.15113 11.0585 9.49314 10.9017 9.83445 10.7435C10.0982 10.6207 10.7456 10.3291 11.2731 10.0954C11.8007 9.86156 12.289 9.62645 12.3582 9.57287C12.4502 9.50169 11.3286 8.88188 8.20974 7.28029C5.8588 6.07303 3.85988 5.0891 3.76769 5.09382C3.67551 5.09854 2.79079 5.52036 1.80165 6.03132ZM19.5009 6.29219C18.2761 6.84513 17.2731 7.31963 17.272 7.34669C17.2709 7.37372 17.9385 7.77065 18.7556 8.22863C19.5726 8.68671 20.2411 9.08599 20.2411 9.11606C20.2411 9.14606 19.5181 9.49637 18.6346 9.89468C17.7509 10.2929 15.5173 11.3016 13.671 12.1362L7.48454 14.9326C5.92834 15.6361 4.52561 16.2702 4.36736 16.3418C1.18873 17.7808 0.315053 18.18 0.195073 18.2486C0.0744233 18.3176 0.0470957 18.7185 0.0256217 20.7305L0 23.1303L1.60821 23.9497L3.21639 24.7691L5.44638 23.7627C6.67291 23.2092 7.67637 22.7273 7.67637 22.6918C7.67637 22.6565 7.44972 22.5088 7.17284 22.3635C6.89581 22.2183 6.32397 21.8968 5.90195 21.6489C5.47996 21.4011 5.05918 21.1736 4.96679 21.1435C4.87444 21.1134 4.80022 21.0608 4.80173 21.0265C4.80326 20.9922 5.78525 20.5258 6.98378 19.9899C9.31171 18.949 11.0932 18.1468 14.9179 16.4172C16.6281 15.644 18.3386 14.8712 20.0493 14.0989C21.5527 13.4203 23.3008 12.6277 23.9338 12.3377L25.0848 11.8103L25.1104 9.38321L25.1361 6.95624L23.505 6.11902C22.6078 5.6586 21.841 5.28301 21.8007 5.28438C21.7606 5.28565 20.7257 5.73911 19.5009 6.29219ZM24.6478 15.0481C24.4074 15.1655 23.9326 15.3853 23.5927 15.5366C23.2528 15.6878 22.6078 15.9788 22.1594 16.1834L21.3441 16.5553L21.3255 18.686C21.3152 19.8579 21.2721 20.8115 21.2296 20.8053C21.1331 20.791 19.6051 20.0073 18.0691 19.1843C16.9606 18.5904 16.8909 18.5667 16.6304 18.6958C16.4798 18.7704 15.5797 19.1741 14.6302 19.593C13.6806 20.0119 12.8727 20.382 12.8347 20.4155C12.7968 20.4489 14.7079 21.4847 17.0817 22.7174L21.3976 24.9586L23.2412 24.0048C24.2551 23.4804 25.1173 23.0019 25.157 22.9418C25.2464 22.8065 25.2387 14.8161 25.1492 14.8269C25.1138 14.8311 24.8881 14.9307 24.6478 15.0481ZM14.4383 24.4268C14.1185 24.5643 13.7988 24.702 13.4792 24.8399C12.514 25.2575 12.7031 25.2713 11.5548 24.6997C10.79 24.319 10.4604 24.2015 10.3173 24.2585C10.2099 24.3013 9.28619 24.7169 8.26433 25.182C7.24254 25.6472 6.37107 26.0278 6.32772 26.0278C5.89901 26.0278 6.61173 26.4536 9.36198 27.8409L12.5874 29.4678L13.9445 28.7978C14.6909 28.4293 16.1963 27.6914 17.29 27.158C18.3836 26.6245 19.2649 26.1742 19.2484 26.1572C19.2318 26.1403 18.3154 25.6697 17.212 25.1115L15.2056 24.0968L14.4383 24.4268Z" fill="white"/>
</svg>
